<svg width="28" height="28" viewBox="0 0 28 28" fill="none" xmlns="http://www.w3.org/2000/svg">
<g clip-path="url(#clip0_20_15)">
<path d="M11.2 12.1259C11.2 11.3833 11.4949 10.6711 12.0201 10.146C12.5452 9.62087 13.2573 9.32587 14 9.32587C14.7426 9.32587 15.4547 9.62087 15.9799 10.146C16.505 10.6711 16.8 11.3833 16.8 12.1259C16.8 12.8685 16.505 13.5807 15.9799 14.1058C15.4547 14.6309 14.7426 14.9259 14 14.9259C13.2573 14.9259 12.5452 14.6309 12.0201 14.1058C11.4949 13.5807 11.2 12.8685 11.2 12.1259Z" fill="white"/>
<path fill-rule="evenodd" clip-rule="evenodd" d="M1.8667 12.1259C1.86818 8.90905 3.14723 5.82452 5.42256 3.55058C7.6979 1.27665 10.7832 -0.00049517 14 1.44019e-07C20.6995 1.44019e-07 26.1334 5.43013 26.1334 12.1259C26.1334 17.1173 23.6358 21.0728 20.959 23.7459C19.7757 24.9343 18.4496 25.9714 17.011 26.8333C16.4099 27.188 15.848 27.468 15.359 27.6584C14.8979 27.8413 14.4144 27.9832 14 27.9832C13.5856 27.9832 13.1022 27.8413 12.6411 27.6584C12.0701 27.4261 11.5178 27.1502 10.9891 26.8333C9.55054 25.9713 8.22443 24.9342 7.0411 23.7459C4.3643 21.0728 1.8667 17.1173 1.8667 12.1259ZM14 7.46107C12.7624 7.46107 11.5754 7.95273 10.7002 8.8279C9.82503 9.70307 9.33337 10.8901 9.33337 12.1277C9.33337 13.3654 9.82503 14.5524 10.7002 15.4276C11.5754 16.3027 12.7624 16.7944 14 16.7944C15.2377 16.7944 16.4247 16.3027 17.2999 15.4276C18.175 14.5524 18.6667 13.3654 18.6667 12.1277C18.6667 10.8901 18.175 9.70307 17.2999 8.8279C16.4247 7.95273 15.2377 7.46107 14 7.46107Z" fill="white"/>
</g>
<defs>
<clipPath id="clip0_20_15">
<rect width="28" height="28" fill="white"/>
</clipPath>
</defs>
</svg>
